<?xml version="1.0" standalone="no"?><!DOCTYPE svg PUBLIC "-//W3C//DTD SVG 1.1//EN" "http://www.w3.org/Graphics/SVG/1.1/DTD/svg11.dtd"><svg t="1778729995144" class="icon" viewBox="0 0 1211 1024" version="1.1" xmlns="http://www.w3.org/2000/svg" p-id="8027" xmlns:xlink="http://www.w3.org/1999/xlink" width="236.5234375" height="200"><path d="M195.297436 306.015385h-78.769231V118.153846c0-65.261538 52.892308-118.153846 118.153846-118.153846h748.307693c65.261538 0 118.153846 52.892308 118.153846 118.153846v787.692308c0 65.246154-52.892308 118.153846-118.153846 118.153846H234.697436c-65.261538 0-118.153846-52.907692-118.153846-118.153846V750.430769h78.769231V905.846154c0 21.753846 17.630769 39.384615 39.384615 39.384615h748.307692c21.753846 0 39.384615-17.630769 39.384616-39.384615v-787.692308c0-21.753846-17.630769-39.384615-39.384616-39.384615H234.697436c-21.753846 0-39.384615 17.630769-39.384615 39.384615v187.861539z m0 0" p-id="8028"></path><path d="M622.005128 387.507692a39.418462 39.418462 0 0 1-14.630769-36.692307 39.4 39.4 0 0 1 24.569231-30.938462 39.370769 39.370769 0 0 1 39.061538 5.953846l182.553846 145.061539c29.215385 23.2 12.8 70.215385-24.507692 70.215384H48.635897c-21.753846 0-39.384615-17.630769-39.384615-39.384615s17.630769-39.384615 39.384615-39.384615h667.538462l-94.138462-74.83077h-0.030769z m0 0" p-id="8029"></path></svg>