<?xml version="1.0" standalone="no"?><!DOCTYPE svg PUBLIC "-//W3C//DTD SVG 1.1//EN" "http://www.w3.org/Graphics/SVG/1.1/DTD/svg11.dtd"><svg t="1778729941548" class="icon" viewBox="0 0 1024 1024" version="1.1" xmlns="http://www.w3.org/2000/svg" p-id="6168" xmlns:xlink="http://www.w3.org/1999/xlink" width="200" height="200"><path d="M798.72 158.72A46.08 46.08 0 0 1 844.8 204.8v102.4a25.6 25.6 0 0 1-51.2 0v-97.28H189.44v604.16h604.16V716.8c0-13.25056 10.07616-24.1664 22.97856-25.47712L819.2 691.2c14.1312 0 25.6 11.4688 25.6 25.6v102.4A46.08 46.08 0 0 1 798.72 865.28H184.32A46.08 46.08 0 0 1 138.24 819.2V204.8A46.08 46.08 0 0 1 184.32 158.72h614.4z m-103.0144 176.04608l162.44736 141.70112a46.08 46.08 0 0 1-1.80224 70.94272l-161.64864 127.13984a25.6 25.6 0 0 1-31.66208-40.2432l122.88-96.70656H368.06656a25.6 25.6 0 1 1 0-51.2h423.60832l-129.6384-113.0496a25.6 25.6 0 0 1-4.17792-33.91488l1.72032-2.21184a25.6 25.6 0 0 1 36.12672-2.4576z" fill="#F94073" p-id="6169"></path></svg>