<?xml version="1.0" standalone="no"?><!DOCTYPE svg PUBLIC "-//W3C//DTD SVG 1.1//EN" "http://www.w3.org/Graphics/SVG/1.1/DTD/svg11.dtd"><svg t="1778730039617" class="icon" viewBox="0 0 1024 1024" version="1.1" xmlns="http://www.w3.org/2000/svg" p-id="9886" xmlns:xlink="http://www.w3.org/1999/xlink" width="200" height="200"><path d="M16.852255 16.860685m112.519783 0l765.239063 0q112.519783 0 112.519783 112.519784l0 765.239062q0 112.519783-112.519783 112.519784l-765.239063 0q-112.519783 0-112.519783-112.519784l0-765.239062q0-112.519783 112.519783-112.519784Z" fill="#00388C" opacity=".9" p-id="9887" data-cur="pointer"></path><path d="M894.619531 33.721371a95.937299 95.937299 0 0 1 95.659098 95.659098v765.239062a95.937299 95.937299 0 0 1-95.659098 95.659098h-765.239062a95.937299 95.937299 0 0 1-95.659098-95.659098v-765.239062a95.937299 95.937299 0 0 1 95.659098-95.659098h765.239062m0-33.721371h-765.239062a129.523784 129.523784 0 0 0-129.380469 129.380469v765.239062a129.523784 129.523784 0 0 0 129.380469 129.380469h765.239062a129.523784 129.523784 0 0 0 129.380469-129.380469v-765.239062a129.523784 129.523784 0 0 0-129.380469-129.380469" fill="#FFFFFF" p-id="9888"></path><path d="M612.118749 338.587852a10.866712 10.866712 0 1 0 10.883573 10.866711 10.900433 10.900433 0 0 0-10.883573-10.866711" fill="#FFFFFF" p-id="9889"></path><path d="M646.438674 357.674147a10.883572 10.883572 0 1 0 10.849851 10.900434 10.959445 10.959445 0 0 0-10.849851-10.900434" fill="#FFFFFF" p-id="9890"></path><path d="M678.726887 376.161889a10.875142 10.875142 0 1 0 10.875142 10.900433 10.959445 10.959445 0 0 0-10.875142-10.900433" fill="#FFFFFF" p-id="9891"></path><path d="M715.660218 397.246176a10.892003 10.892003 0 1 0 10.883572 10.875142 10.908863 10.908863 0 0 0-10.883572-10.875142" fill="#FFFFFF" p-id="9892"></path><path d="M793.573444 419.713039a10.883572 10.883572 0 1 0 10.883573 10.883572 10.917294 10.917294 0 0 0-10.883573-10.883572" fill="#FFFFFF" p-id="9893"></path><path d="M812.710322 454.707391a10.883572 10.883572 0 1 0 10.866712 10.883573 10.883572 10.883572 0 0 0-10.866712-10.883573" fill="#FFFFFF" p-id="9894"></path><path d="M815.956004 280.553373l-67.375298 41.426704-134.413383-77.087053-101.83854 175.266823-144.614097-90.474437a20.317126 20.317126 0 0 0-16.363295-4.316336 70.325918 70.325918 0 0 0-17.172608 3.709351l-203.382017 117.974215 0.202328 219.037163c69.052937 4.392209 124.861805-7.165791 176.733704-54.173382l104.342351-18.546754 30.104753 19.878748-11.06904 20.283405c-20.468872 34.45481 27.752688 60.52143 47.378526 30.492549a28.309091 28.309091 0 1 0 50.725372 25.113991l12.645514-22.045346 68.201472 37.186241 52.832957-92.379695 261.340622-145.204221z m-492.33201 236.285644c7.503005-44.849423 29.506199-51.42509 73.934105-39.622611l39.62261 23.739845z m277.594322 152.311l-149.217065-81.108326 80.20628-14.407456c61.828133-13.834192 38.644691-91.047701-9.273377-85.812458l-25.004396 3.169809 123.209458-216.592363 154.443877 88.392142z m204.250342-313.381127l-35.584476-21.075857 37.869099-22.584888 84.303426 145.710043-210.707984 119.710865z" fill="#FFFFFF" p-id="9895"></path></svg>