<?xml version="1.0" standalone="no"?><!DOCTYPE svg PUBLIC "-//W3C//DTD SVG 1.1//EN" "http://www.w3.org/Graphics/SVG/1.1/DTD/svg11.dtd"><svg t="1778730255943" class="icon" viewBox="0 0 1025 1024" version="1.1" xmlns="http://www.w3.org/2000/svg" p-id="14725" xmlns:xlink="http://www.w3.org/1999/xlink" width="200.1953125" height="200"><path d="M1018.477302 1019.473578h-71.291858V100.827057c0-11.203006-9.166096-20.369102-20.369103-20.369102h-835.1332c-11.203006 0-20.369102 9.166096-20.369103 20.369102v918.646521h-71.291858V100.827057c0-51.941211 40.738205-94.716326 91.660961-94.716326h836.151655c49.904301 0 91.660961 41.75666 91.660962 94.716326v918.646521zM421.6626 919.664976l-294.33353 103.882423c-6.110731 2.03691-11.203006-3.055365-11.203006-10.184552V126.288435c0-7.129186 5.092276-12.221461 11.203006-10.184551L421.6626 214.894031c4.07382 1.018455 6.110731 6.110731 6.110731 10.184551v684.401843c1.018455 5.092276-2.03691 9.166096-6.110731 10.184551z m169.063551 0l294.33353 103.882423c6.110731 2.03691 11.203006-3.055365 11.203007-10.184552V126.288435c0-7.129186-5.092276-12.221461-11.203007-10.184551l-294.33353 99.808602c-4.07382 1.018455-6.110731 6.110731-6.110731 10.184551v684.401843c0 4.07382 3.055365 8.147641 6.110731 9.166096z m0 0" fill="#13227A" p-id="14726"></path></svg>