<?xml version="1.0" standalone="no"?><!DOCTYPE svg PUBLIC "-//W3C//DTD SVG 1.1//EN" "http://www.w3.org/Graphics/SVG/1.1/DTD/svg11.dtd"><svg t="1778730229337" class="icon" viewBox="0 0 1024 1024" version="1.1" xmlns="http://www.w3.org/2000/svg" p-id="13623" xmlns:xlink="http://www.w3.org/1999/xlink" width="200" height="200"><path d="M512 320a64 64 0 1 0 64 64 64 64 0 0 0-64-64zM544 464h-64a96 96 0 0 0-96 96v128a16 16 0 0 0 32 0v-128a16 16 0 0 1 32 0v376a24 24 0 0 0 24 24 24 24 0 0 0 24-24V720a14.4 14.4 0 0 1 16-16 14.4 14.4 0 0 1 16 16v216a24 24 0 0 0 24 24 24 24 0 0 0 24-24V560a16 16 0 0 1 32 0v128a16 16 0 0 0 32 0v-128a96 96 0 0 0-96-96zM128 576h96v384H128a64 64 0 0 1-64-64V640a64 64 0 0 1 64-64zM800 576h96a64 64 0 0 1 64 64v256a64 64 0 0 1-64 64h-96V576z" fill="#333333" p-id="13624" data-cur="pointer"></path><path d="M640 64H384a128 128 0 0 0-128 128v768h64V251.2h384V960h64V192a128 128 0 0 0-128-128z m-224 128a32 32 0 1 1 32-32 32 32 0 0 1-32 32z m192 0a32 32 0 1 1 32-32 32 32 0 0 1-32 32z" fill="#333333" p-id="13625" data-cur="pointer"></path></svg>
