<?xml version="1.0" standalone="no"?><!DOCTYPE svg PUBLIC "-//W3C//DTD SVG 1.1//EN" "http://www.w3.org/Graphics/SVG/1.1/DTD/svg11.dtd"><svg t="1778730184102" class="icon" viewBox="0 0 1024 1024" version="1.1" xmlns="http://www.w3.org/2000/svg" p-id="12156" xmlns:xlink="http://www.w3.org/1999/xlink" width="200" height="200"><path d="M0 0h1024v1024H0z" fill="#011C30" p-id="12157"></path><path d="M64 823v62.35h191.85V823h140.83v-62.4h140.83v-62.34h140.83v-62.35h140.83v-62.35H960v-62.35H768.15v62.35H627.32v62.35H486.49v62.35H345.66v62.34H204.83V823zM540.3 179.13c0 22.35 18.12 40.47 40.47 40.47 22.35 0 40.47-18.12 40.47-40.47 0-22.35-18.12-40.47-40.47-40.47-22.35-0.01-40.47 18.11-40.47 40.47z" fill="#009FE8" p-id="12158"></path><path d="M534.89 278.19v124.72c0 3.52 0.81 6.99 2.37 10.14l16.24 32.78c1.06 2.14 1.62 4.5 1.62 6.9v142.35c0 13.41 9.82 25.36 23.16 26.61 15.3 1.44 28.14-10.54 28.14-25.49V462.88c0-3.25 3.41-5.37 6.32-3.92l34.91 17.35c4.19 2.08 6.84 6.35 6.84 11.03v46.47c0 12.33 9.02 23.34 21.29 24.5 14.08 1.34 25.92-9.69 25.92-23.5v-75.34c0-5.45-3.09-10.43-7.97-12.86l-39.25-19.5-21.47-10.68a11.492 11.492 0 0 1-6.38-10.3v-49.11c0-2.56 2.74-4.17 4.98-2.93l40.76 22.56 0.81 0.48c3.41 1.77 7.56 2.39 11.82 1.35 6.01-1.45 10.86-6.35 12.27-12.37 1.87-8-2.01-15.39-8.38-18.83l-56.32-31.21a11.534 11.534 0 0 1-5.94-10.08v-27.81c0-25.37-20.56-45.88-45.88-45.88s-45.86 20.53-45.86 45.89zM215.28 526.47c0.94 8.34 7.73 15.26 16.05 16.32 6.55 0.84 12.55-1.7 16.47-6.17 0.29-0.28 0.57-0.62 0.81-0.95l28.17-33.92c1.27-1.53 3.76-0.63 3.76 1.36v222.55c0 11.8 8.67 22.31 20.43 23.37 13.48 1.22 24.74-9.29 24.74-22.46v-83.39c0-2.87 3.32-4.46 5.55-2.66l45.13 36.36c0.09 0.05 0.19 0.14 0.28 0.19 3.77 3 8.71 4.57 14.05 3.89 8.33-1.06 15.15-7.96 16.05-16.31 0.71-6.57-1.88-12.5-6.41-16.38-0.28-0.28-0.62-0.57-0.95-0.81L330.61 592c-2.69-2.16-3.15-6.08-1.06-8.81l33.39-43.6c1.86-2.43 2.87-5.4 2.87-8.46V401.37c0-3.57-0.43-7.09-1.28-10.42-4.66-18.47-21.42-32.22-41.36-32.22-19.94 0-36.69 13.75-41.36 32.22-0.86 3.33-1.28 6.85-1.28 10.42v32.75c0 2.98-1.04 5.86-2.94 8.15l-58.07 69.99c-0.05 0.1-0.14 0.19-0.19 0.29-3.02 3.69-4.65 8.61-4.05 13.92zM282.72 309.17c0 22.35 18.12 40.47 40.47 40.47 22.35 0 40.47-18.12 40.47-40.47 0-22.35-18.12-40.47-40.47-40.47-22.35 0-40.47 18.12-40.47 40.47z" fill="#009FE8" p-id="12159"></path></svg>