<?xml version="1.0" standalone="no"?><!DOCTYPE svg PUBLIC "-//W3C//DTD SVG 1.1//EN" "http://www.w3.org/Graphics/SVG/1.1/DTD/svg11.dtd"><svg t="1778730200122" class="icon" viewBox="0 0 1024 1024" version="1.1" xmlns="http://www.w3.org/2000/svg" p-id="12593" xmlns:xlink="http://www.w3.org/1999/xlink" width="200" height="200"><path d="M457 247.6m-65 0a65 65 0 1 0 130 0 65 65 0 1 0-130 0Z" p-id="12594"></path><path d="M943 253.6l-149.2-0.2-261.6 175.3v-41.5c0-33-27-60-60-60h-30.3c-33 0-60 27-60 60v142.2L217.7 639.5H86.1c-11.1 0-20 9-20 20l0.5 214.8c0 11 9 20 20 20l145.8-0.1 576.2-384.3H943c11 0 20-9 20-20V273.6c0-11.1-9-20-20-20z m-30 206.3H793.5L217.2 844.2l-100.7 0.1-0.3-154.8h116.7L809 303.4l104 0.1v156.4z" p-id="12595" data-cur="pointer"></path></svg>