<?xml version="1.0" standalone="no"?><!DOCTYPE svg PUBLIC "-//W3C//DTD SVG 1.1//EN" "http://www.w3.org/Graphics/SVG/1.1/DTD/svg11.dtd"><svg t="1778730152517" class="icon" viewBox="0 0 1024 1024" version="1.1" xmlns="http://www.w3.org/2000/svg" p-id="10914" xmlns:xlink="http://www.w3.org/1999/xlink" width="200" height="200"><path d="M903.964444 64c30.947556 0 56.035556 22.300444 56.035556 49.777778v796.444444c0 27.477333-25.031111 49.777778-55.978667 49.777778H525.994667V64h378.026666z m-405.959111 0v896H119.978667c-30.890667 0-55.978667-22.300444-55.978667-49.777778V113.777778c0-27.477333 25.031111-49.777778 55.978667-49.777778h378.026666zM329.955556 163.555556H176.014222c-30.947556 0-56.035556 22.300444-56.035555 49.777777v373.304889c0 27.534222 25.088 49.834667 56.035555 49.834667H329.955556c30.890667 0 55.978667-22.300444 55.978666-49.834667V213.333333c0-27.477333-25.031111-49.777778-55.978666-49.777777z m517.973333 0H694.044444c-30.890667 0-55.978667 22.300444-55.978666 49.777777v373.304889c0 27.534222 25.031111 49.834667 55.978666 49.834667h153.998223c30.947556 0 56.035556-22.300444 56.035555-49.834667V213.333333c0-27.477333-25.088-49.777778-56.035555-49.777777z m-398.961778 298.666666c-11.605333 0-21.048889 8.362667-21.048889 18.659556v62.236444c0 10.296889 9.443556 18.659556 21.048889 18.659556 11.548444 0 20.992-8.362667 20.992-18.659556V480.881778c0-10.296889-9.443556-18.659556-21.048889-18.659556z m125.952 0c-11.548444 0-20.992 8.362667-20.992 18.659556v62.236444c0 10.296889 9.443556 18.659556 21.048889 18.659556 11.548444 0 20.992-8.362667 20.992-18.659556V480.881778c0-10.296889-9.443556-18.659556-21.048889-18.659556z" p-id="10915"></path></svg>
