<?xml version="1.0" standalone="no"?><!DOCTYPE svg PUBLIC "-//W3C//DTD SVG 1.1//EN" "http://www.w3.org/Graphics/SVG/1.1/DTD/svg11.dtd"><svg t="1778730298186" class="icon" viewBox="0 0 1024 1024" version="1.1" xmlns="http://www.w3.org/2000/svg" p-id="15886" xmlns:xlink="http://www.w3.org/1999/xlink" width="200" height="200"><path d="M807.924 277.353L630.135 99.562c-5.635-5.634-13.064-8.451-20.453-8.451-7.43 0-14.84 2.817-20.494 8.451l-177.79 177.811c-11.309 11.308-11.309 29.659 0 40.947 11.308 11.309 29.638 11.309 40.947 0l127.822-127.801v350.763H249.855c-0.571-0.04-1.061-0.327-1.633-0.327h-19.146c-0.572 0-1.062 0.287-1.633 0.327-10.737 0.898-19.27 9.635-19.27 20.575V914.6c0 11.532 9.349 20.902 20.902 20.902h19.146c11.554 0 20.903-9.37 20.903-20.902V602.273h351.089c11.555 0 20.902-9.368 20.902-20.902V192.458L766.978 318.32c11.31 11.288 29.659 11.288 40.946 0 11.309-11.308 11.309-29.639 0-40.967z" fill="#7B7B7B" p-id="15887"></path></svg>
