<?xml version="1.0" standalone="no"?><!DOCTYPE svg PUBLIC "-//W3C//DTD SVG 1.1//EN" "http://www.w3.org/Graphics/SVG/1.1/DTD/svg11.dtd"><svg t="1778729741458" class="icon" viewBox="0 0 1024 1024" version="1.1" xmlns="http://www.w3.org/2000/svg" p-id="7208" xmlns:xlink="http://www.w3.org/1999/xlink" width="200" height="200"><path d="M122.88 256h61.44c16.998 0 30.72-13.722 30.72-30.72s-13.722-30.72-30.72-30.72h-61.44c-16.998 0-30.72 13.722-30.72 30.72S105.882 256 122.88 256z m52.224 140.083c-6.144-6.144-14.131-9.011-22.323-9.011-7.987-0.205-16.18 2.867-22.323 9.011l-52.224 52.224c-12.084 12.083-12.084 31.54 0 43.418 5.939 5.939 13.926 9.011 21.708 9.011s15.77-3.072 21.71-9.011l0.204-0.205v80.896c0 16.998 13.722 30.72 30.72 30.72s30.72-13.722 30.72-30.72V491.52l0.205 0.205c5.939 5.939 13.926 9.011 21.709 9.011s15.77-3.072 21.708-9.011c12.084-12.083 12.084-31.54 0-43.418l-51.814-52.224zM901.12 102.4h-61.44c-67.789 0-122.88 55.091-122.88 122.88v40.96H589.824c-25.395 0-48.333 12.902-61.44 34.611-13.107 21.709-13.926 47.923-2.048 70.451 0.41 1.024 1.024 1.844 1.638 2.663L716.8 656.794V798.72c0 67.789 55.091 122.88 122.88 122.88h61.44c67.789 0 122.88-55.091 122.88-122.88V225.28c0-67.789-55.091-122.88-122.88-122.88zM716.595 545.792L580.403 341.606c-1.638-4.096-0.205-7.372 0.82-9.01 1.023-1.844 3.686-4.916 8.806-4.916H716.8v218.112zM962.56 798.72c0 33.792-27.648 61.44-61.44 61.44h-61.44c-33.792 0-61.44-27.648-61.44-61.44V225.28c0-33.792 27.648-61.44 61.44-61.44h61.44c33.792 0 61.44 27.648 61.44 61.44v573.44z" fill="#646464" p-id="7209"></path><path d="M839.68 256h61.44c16.998 0 30.72-13.722 30.72-30.72s-13.722-30.72-30.72-30.72h-61.44c-16.998 0-30.72 13.722-30.72 30.72S822.682 256 839.68 256z m52.224 140.083c-6.144-6.144-14.131-9.011-22.323-9.011-7.987-0.205-16.18 2.867-22.323 9.011l-52.224 52.224c-12.084 12.083-12.084 31.54 0 43.418 5.939 5.939 13.926 9.011 21.708 9.011s15.77-3.072 21.71-9.011l0.204-0.205v80.896c0 16.998 13.722 30.72 30.72 30.72s30.72-13.722 30.72-30.72V491.52l0.205 0.205c5.939 5.939 13.926 9.011 21.709 9.011s15.77-3.072 21.708-9.011c12.084-12.083 12.084-31.54 0-43.418l-51.814-52.224zM433.971 266.24H307.2v-40.96c0-67.789-55.091-122.88-122.88-122.88h-61.44C55.091 102.4 0 157.491 0 225.28v573.44C0 866.509 55.091 921.6 122.88 921.6h61.44c67.789 0 122.88-55.091 122.88-122.88V656.384l188.416-282.42a18.697 18.697 0 0 0 1.638-2.662c11.879-22.323 11.06-48.742-2.048-70.45-13.107-21.71-36.044-34.612-61.235-34.612zM245.76 798.72c0 33.792-27.648 61.44-61.44 61.44h-61.44c-33.792 0-61.44-27.648-61.44-61.44V225.28c0-33.792 27.648-61.44 61.44-61.44h61.44c33.792 0 61.44 27.648 61.44 61.44v573.44z m197.632-457.114L307.2 545.792V327.68h126.771c5.12 0 7.578 3.072 8.807 4.915 1.024 1.639 2.252 5.12 0.614 9.011z" fill="#646464" p-id="7210"></path></svg>